C:\GBW_MyPrograms\KinderuniversiteitApp\Resultaten\Ellis_v10102025\Jullie_lengte\Jullie_lengte_v11.mot
version=1
nRows=13
nColumns=29
inDegrees=yes
endheader
                time	         pelvis_tilt	           pelvis_tx	           pelvis_ty	       hip_flexion_l	       hip_flexion_r	        knee_angle_l	        knee_angle_r	       ankle_angle_l	       ankle_angle_r	    lumbar_extension	hamstrings_r/activation	bifemsh_r/activation	glut_max_r/activation	iliopsoas_r/activation	rect_fem_r/activation	  vasti_r/activation	gastroc_r/activation	 soleus_r/activation	tib_ant_r/activation	hamstrings_l/activation	bifemsh_l/activation	glut_max_l/activation	iliopsoas_l/activation	rect_fem_l/activation	  vasti_l/activation	gastroc_l/activation	 soleus_l/activation	tib_ant_l/activation	
          0.00000000	         -8.06710016	          0.00000000	          0.67389190	         -6.97603615	         31.88768924	        -11.12868255	        -14.27813126	          6.01624746	         11.00764325	          1.05920839	          0.10143754	          0.05000009	          0.05877194	          0.05000007	          0.06836788	          0.05498383	          0.05000002	          0.05000011	          0.23853046	          0.05000002	          0.11863237	          0.05000013	          0.34301756	          0.05000035	          0.05000003	          0.17408107	          0.24709402	          0.05000000	
          0.01014627	         -8.06553406	          0.01075665	          0.67324580	         -6.80925387	         31.05019094	        -13.12005133	        -13.62690456	          5.48383529	         10.91515052	          1.34559207	          0.09854423	          0.05000006	          0.06742727	          0.05000002	          0.05847885	          0.07359307	          0.05000001	          0.05000000	          0.25457471	          0.05000003	          0.10147285	          0.05382762	          0.32324060	          0.05000007	          0.05000002	          0.14890120	          0.23060271	          0.05000000	
          0.02029255	         -8.05777619	          0.02178943	          0.67252857	         -6.52356343	         30.12672096	        -15.36405290	        -13.48430759	          4.83266214	         10.77031074	          1.67032856	          0.09328623	          0.05470456	          0.05767431	          0.05000005	          0.05002022	          0.06294825	          0.06379245	          0.05690497	          0.24047327	          0.05000015	          0.08679537	          0.08982620	          0.28414435	          0.05000004	          0.05000001	          0.12736346	          0.19724730	          0.05000000	
          0.03043882	         -8.04566549	          0.03297456	          0.67179023	         -6.13371463	         29.18634343	        -17.79939421	        -13.58376294	          4.01984778	         10.59369756	          2.01654592	          0.08175553	          0.06679695	          0.08686899	          0.05000002	          0.05000001	          0.10289083	          0.05456524	          0.05000007	          0.26532006	          0.05000009	          0.07424091	          0.10261614	          0.25645075	          0.05000004	          0.05000002	          0.10894103	          0.16871656	          0.05000000	
          0.04058510	         -8.03305025	          0.04408706	          0.67122002	         -5.62152064	         28.33724727	        -20.39608148	        -13.81908603	          3.01181504	         10.39756132	          2.35220621	          0.07231518	          0.05713518	          0.13653126	          0.05000001	          0.05000005	          0.16907113	          0.05000004	          0.05000003	          0.28476502	          0.05000004	          0.06350238	          0.08777329	          0.24375139	          0.05000012	          0.05918968	          0.09318331	          0.14431263	          0.11649162	
          0.05073137	         -8.02335523	          0.05494730	          0.67094779	         -4.98707461	         27.58841020	        -23.12639826	        -14.17773596	          1.97880954	         10.18764349	          2.65281601	          0.07156329	          0.05000012	          0.17412396	          0.05000001	          0.05000003	          0.21753948	          0.05000002	          0.05000002	          0.29762083	          0.05000003	          0.05431713	          0.07507737	          0.23711517	          0.05000010	          0.05320007	          0.07970485	          0.12343860	          0.23093464	
          0.06087765	         -8.01905225	          0.06543036	          0.67096643	         -4.25126332	         26.89720622	        -25.88434228	        -14.57125535	          1.30329079	         10.01285626	          2.90188269	          0.06811865	          0.05000013	          0.18935738	          0.05000001	          0.05000003	          0.24572173	          0.05000002	          0.05000002	          0.30403381	          0.05001923	          0.09956088	          0.06421784	          0.23681737	          0.05000002	          0.05000000	          0.06817609	          0.10558389	          0.22131793	
          0.07102392	         -8.02103727	          0.07550143	          0.67128597	         -3.44758482	         26.22414518	        -28.40170128	        -14.92710731	          1.19005587	          9.89447807	          3.09596088	          0.06728421	          0.05000024	          0.18315322	          0.05000001	          0.05000003	          0.25560038	          0.05000003	          0.05000003	          0.29981663	          0.05887183	          0.11784876	          0.05492909	          0.22788331	          0.05000003	          0.05000000	          0.06870941	          0.09031176	          0.24946257	
          0.08117020	         -8.02823440	          0.08519218	          0.67192808	         -2.56190103	         25.53907077	        -30.68248183	        -15.19960901	          1.41740152	          9.84085191	          3.24022815	          0.06635634	          0.05000030	          0.16743601	          0.05000001	          0.05000003	          0.25477044	          0.05000005	          0.05000004	          0.28951331	          0.06427750	          0.13048952	          0.05000001	          0.21856062	          0.05000003	          0.05000000	          0.06600393	          0.07724866	          0.24651187	
          0.09131647	         -8.03905652	          0.09455204	          0.67285239	         -1.59043470	         24.82551622	        -32.77138246	        -15.36817676	          1.82783951	          9.83948079	          3.34175144	          0.06550865	          0.05000027	          0.14743578	          0.05000001	          0.05000005	          0.24665142	          0.05000005	          0.05000006	          0.27678860	          0.06621571	          0.15093904	          0.05000001	          0.20824414	          0.05000054	          0.05000000	          0.06637508	          0.06607507	          0.23779931	
          0.10146275	         -8.05193228	          0.10363174	          0.67398544	         -0.54092221	         24.07820986	        -34.69186156	        -15.43173275	          2.33955607	          9.86826064	          3.40733600	          0.06730236	          0.05000027	          0.13584544	          0.05000001	          0.05000004	          0.23387686	          0.05000005	          0.05000005	          0.26444141	          0.07492874	          0.18100802	          0.05000001	          0.19571746	          0.09451673	          0.05000000	          0.06616706	          0.05651767	          0.22580146	
          0.11160902	         -8.06552620	          0.11247971	          0.67524725	          0.57215782	         23.29625303	        -36.44208116	        -15.39717289	          2.89429546	          9.91018264	          3.44329700	          0.06795133	          0.05000022	          0.12755879	          0.05000001	          0.05000005	          0.22024602	          0.05000003	          0.05000004	          0.25202419	          0.07928533	          0.21701640	          0.05000000	          0.18463006	          0.12843390	          0.05000000	          0.06544347	          0.05000001	          0.21626864	
          0.12175530	         -8.07874616	          0.12113436	          0.67656412	          1.73805886	         22.48267327	        -38.01646003	        -15.27687997	          3.44617830	          9.95482026	          3.45430342	          0.06811048	          0.05000017	          0.12190091	          0.05000001	          0.05000006	          0.20708939	          0.05000003	          0.05000003	          0.23828673	          0.07925369	          0.25806750	          0.05000000	          0.17437684	          0.15719965	          0.05000000	          0.05619316	          0.05000000	          0.21096472	
